# xmcd CD database file
#
# Track frame offsets:
#	150
#	42747
#	92176
#	106407
#	132631
#	170661
#
# Disc length: 2382 seconds
#
# Revision: 0
# Processed by: cddbd v1.5PL3 Copyright (c) Steve Scherf et al.
# Submitted via: CDex 1.50
#
DISCID=58094c06
DTITLE=Jack DeJohnette - Special Edition
DYEAR=1979
DGENRE=Jazz
TTITLE0=ONE FOR ERIC
TTITLE1=ZOOT SUITE
TTITLE2=CENTRAL PARK WEST
TTITLE3=INDIA
TTITLE4=YOURNEY TO THE TWIN PLANET
TTITLE5=YOURNEY TO THE TWIN PLANET(edit)
EXTD=YEAR: 1979
EXTT0=
EXTT1=
EXTT2=
EXTT3=
EXTT4=
EXTT5=
PLAYORDER=
